# xmcd
#
# Track frame offsets: 
#        150
#        22903
#        50404
#        68550
#        86477
#        105521
#        126003
#        146910
#        167567
#        185178
#        198199
#        215068
#        233997
#        249904
#        265886
#        284114
#        304575
#        324665
#        338926
#
# Disc length: 4721 seconds
#
# Revision: 2
# Processed by: cddbd v1.5.2PL0 Copyright (c) Steve Scherf et al.
# Submitted via: ExactAudioCopy v0.99pb4
#
DISCID=1b126f13
DTITLE=Various Artist - Hector - Hectobox - CD VI: 1994 - 2005
DYEAR=2005
DGENRE=Rock
TTITLE0=Hector and Värttinä - Velisurmaaja
TTITLE1=Hector - Viimeinen unelma
TTITLE2=Hector - Magdaleena
TTITLE3=Hector - Salaisuuksien talo
TTITLE4=Hector - Yö tanssittaa
TTITLE5=Hector and Sarita Harma - Vanhat polkupyörät
TTITLE6=Hector - Pää räjähtää
TTITLE7=Hector - Mitä mulle kuuluu
TTITLE8=Hector - Yksi pieni ihme
TTITLE9=Hector - Tahdon kaljalle
TTITLE10=Hector - Muistinko kertoa
TTITLE11=Hector - Hän on mun nainen
TTITLE12=Hector - Hullu syntikka - Hullu hanuri
TTITLE13=Hector - Meksikon pikajuna
TTITLE14=Kapasiteettiyksikkö feat. Hector - Tää on mun stadi
TTITLE15=Hector - Kuunnellaan vaan taivasta
TTITLE16=Hector - Kun rakkaus saapuu kaupunkiin
TTITLE17=Hector - Lähes onnellinen mies
TTITLE18=Hector - Olishan se hienoo
EXTD=
EXTT0=
EXTT1=
EXTT2=
EXTT3=
EXTT4=
EXTT5=
EXTT6=
EXTT7=
EXTT8=
EXTT9=
EXTT10=
EXTT11=
EXTT12=
EXTT13=
EXTT14=
EXTT15=
EXTT16=
EXTT17=
EXTT18=
PLAYORDER=
